<svg preserveAspectRatio="none" overflow="visible" style="display: block;" width="24" height="24" viewBox="0 0 24 24" fill="none" xmlns="http://www.w3.org/2000/svg">
<g id="garden:exit-fill-16" clip-path="url(#clip0_0_15)">
<path id="Vector" d="M4.5 23.895C4.155 23.895 3.825 23.775 3.54 23.55L0.54 21.045C0.371829 20.9062 0.236266 20.7322 0.142939 20.5352C0.0496122 20.3381 0.000810592 20.123 0 19.905L0 4.09498C0 3.64498 0.195 3.22498 0.54 2.93998L3.54 0.434977C3.99 0.0749767 4.605 -2.32527e-05 5.13 0.239977C5.39037 0.360474 5.61072 0.553115 5.76492 0.795053C5.91913 1.03699 6.00071 1.31808 6 1.60498V22.41C6.00071 22.6969 5.91913 22.978 5.76492 23.2199C5.61072 23.4618 5.39037 23.6545 5.13 23.775C4.935 23.85 4.71 23.895 4.5 23.895ZM18 16.5V7.49998C18 6.82498 18.81 6.49498 19.275 6.97498L23.25 10.95C23.835 11.535 23.835 12.48 23.25 13.065L19.275 17.04C19.1693 17.1436 19.0352 17.2137 18.8897 17.2413C18.7442 17.2688 18.5938 17.2527 18.4575 17.195C18.3211 17.1372 18.2049 17.0404 18.1235 16.9167C18.0421 16.7931 17.9991 16.648 18 16.5Z" fill="#717C84"/>
<path id="Vector_2" d="M5.25 3.75H13.5C13.92 3.75 14.25 4.08 14.25 4.5V8.25M5.25 20.25H13.5C13.92 20.25 14.25 19.92 14.25 19.5V15.75M22.5 12H10.5" stroke="#717C84" stroke-width="1.5" stroke-linecap="round"/>
</g>
<defs>
<clipPath id="clip0_0_15">
<rect width="24" height="24" fill="white"/>
</clipPath>
</defs>
</svg>
